<?xml version="1.0" encoding="UTF-8" standalone="no"?>
<!DOCTYPE svg PUBLIC "-//W3C//DTD SVG 1.1//EN"
 "http://www.w3.org/Graphics/SVG/1.1/DTD/svg11.dtd">
<!-- Generated by graphviz version 11.0.0 (20240428.1522)
 -->
<!-- Title: social_network_analysis Pages: 1 -->
<svg width="709pt" height="519pt"
 viewBox="2.16 2.16 707.04 517.32" xmlns="http://www.w3.org/2000/svg" xmlns:xlink="http://www.w3.org/1999/xlink">
<g id="graph0" class="graph" transform="scale(1 1) rotate(0) translate(3.6 515.88)">
<title>social_network_analysis</title>
<!-- START&#45;&gt;COMPLETE -->
<g id="edge25" class="edge">
<title>START&#45;&gt;COMPLETE</title>
<path fill="none" stroke="#eb8c5b" stroke-width="0.97" d="M650,-452.99C650,-452.99 671,-434.49 671,-434.49 671,-434.49 671,-388.95 671,-388.95 671,-388.95 654,-228.87 654,-228.87 654,-228.87 643,-162.33 643,-162.33 643,-162.33 638,-135.33 638,-135.33 638,-135.33 595,-101.56 595,-101.56"/>
<text text-anchor="start" x="676.5" y="-263.44" font-family="Helvetica,sans-Serif" font-weight="bold" font-size="6.00" fill="#eb8c5b">f=1</text>
<text text-anchor="start" x="660" y="-255.94" font-family="Helvetica,sans-Serif" font-weight="bold" font-size="6.00" fill="#eb8c5b">mu=2,6 std=0,0</text>
</g>
<!-- START&#45;&gt;artifact_parser -->
<g id="edge1" class="edge">
<title>START&#45;&gt;artifact_parser</title>
<path fill="none" stroke="#a8c575" stroke-width="4.5" d="M566.97,-473.52C555.57,-464.02 541.39,-452.21 528.57,-441.52"/>
<polygon fill="#a8c575" stroke="#a8c575" stroke-width="4.5" points="530.29,-440.14 524.68,-438.28 527.52,-443.47 530.29,-440.14"/>
<text text-anchor="start" x="565" y="-456.79" font-family="Helvetica,sans-Serif" font-weight="bold" font-size="6.00" fill="#a8c575">f=55</text>
<text text-anchor="start" x="550" y="-449.29" font-family="Helvetica,sans-Serif" font-weight="bold" font-size="6.00" fill="#a8c575">mu=6,9 std=1,8</text>
</g>
<!-- START&#45;&gt;bias_and_impact_auditor -->
<g id="edge22" class="edge">
<title>START&#45;&gt;bias_and_impact_auditor</title>
<path fill="none" stroke="#71b366" stroke-width="0.97" d="M650,-452.99C650,-452.99 629,-434.49 629,-434.49 629,-434.49 617,-328.18 617,-328.18"/>
<path fill="none" stroke="#71b366" stroke-width="0.97" d="M617.36,-474.73C633.29,-465.1 650,-454.99 650,-454.99"/>
<text text-anchor="start" x="645.5" y="-414.52" font-family="Helvetica,sans-Serif" font-weight="bold" font-size="6.00" fill="#71b366">f=1</text>
<text text-anchor="start" x="629" y="-407.02" font-family="Helvetica,sans-Serif" font-weight="bold" font-size="6.00" fill="#71b366">mu=8,1 std=0,0</text>
</g>
<!-- artifact_parser&#45;&gt;COMPLETE -->
<g id="edge3" class="edge">
<title>artifact_parser&#45;&gt;COMPLETE</title>
<path fill="none" stroke="#ccd07e" stroke-width="1.75" d="M595,-99.56C595,-99.56 582,-77.79 582,-77.79 582,-77.79 559,-59.29 559,-59.29"/>
<path fill="none" stroke="#ccd07e" stroke-width="1.75" d="M401,-368.45C401,-368.45 414,-304.41 414,-304.41 414,-304.41 435,-228.87 435,-228.87 435,-228.87 504,-216.87 504,-216.87 504,-216.87 582,-123.33 582,-123.33 582,-123.33 595,-101.56 595,-101.56"/>
<path fill="none" stroke="#ccd07e" stroke-width="1.75" d="M465.59,-398.42C438.24,-386.58 401,-370.45 401,-370.45"/>
<text text-anchor="start" x="564" y="-192.4" font-family="Helvetica,sans-Serif" font-weight="bold" font-size="6.00" fill="#ccd07e">f=13</text>
<text text-anchor="start" x="549" y="-184.9" font-family="Helvetica,sans-Serif" font-weight="bold" font-size="6.00" fill="#ccd07e">mu=6,1 std=2,2</text>
</g>
<!-- artifact_parser&#45;&gt;domain_reasoner -->
<g id="edge2" class="edge">
<title>artifact_parser&#45;&gt;domain_reasoner</title>
<path fill="none" stroke="#9cc172" stroke-width="2.41" d="M465.46,-404.21C422.46,-394.4 346,-376.95 346,-376.95 346,-376.95 245.1,-351.58 188.83,-337.44"/>
<polygon fill="#9cc172" stroke="#9cc172" stroke-width="2.41" points="189.55,-335.63 183.75,-336.16 188.61,-339.37 189.55,-335.63"/>
<text text-anchor="start" x="361" y="-372.25" font-family="Helvetica,sans-Serif" font-weight="bold" font-size="6.00" fill="#9cc172">f=23</text>
<text text-anchor="start" x="346" y="-364.75" font-family="Helvetica,sans-Serif" font-weight="bold" font-size="6.00" fill="#9cc172">mu=7,1 std=1,1</text>
</g>
<!-- artifact_parser&#45;&gt;formal_semantics_checker -->
<g id="edge9" class="edge">
<title>artifact_parser&#45;&gt;formal_semantics_checker</title>
<path fill="none" stroke="#b2c877" stroke-width="1.29" d="M401,-368.45C401,-368.45 388,-361.95 388,-361.95 388,-361.95 346,-349.95 346,-349.95 346,-349.95 318,-228.87 318,-228.87 318,-228.87 246,-216.87 246,-216.87 246,-216.87 244.98,-216.15 243.28,-214.94"/>
<polygon fill="#b2c877" stroke="#b2c877" stroke-width="1.29" points="244.61,-213.52 239.01,-211.91 242.38,-216.66 244.61,-213.52"/>
<text text-anchor="start" x="362.5" y="-329.98" font-family="Helvetica,sans-Serif" font-weight="bold" font-size="6.00" fill="#b2c877">f=6</text>
<text text-anchor="start" x="346" y="-322.48" font-family="Helvetica,sans-Serif" font-weight="bold" font-size="6.00" fill="#b2c877">mu=6,7 std=1,4</text>
</g>
<!-- artifact_parser&#45;&gt;counterexample_hunter -->
<g id="edge17" class="edge">
<title>artifact_parser&#45;&gt;counterexample_hunter</title>
<path fill="none" stroke="#89bb6d" stroke-width="1.1" d="M522.33,-390.35C536.22,-380.36 550,-370.45 550,-370.45"/>
<path fill="none" stroke="#89bb6d" stroke-width="1.1" d="M550,-368.45C550,-368.45 483,-292.41 483,-292.41 483,-292.41 403.2,-181.24 365.41,-128.6"/>
<polygon fill="#89bb6d" stroke="#89bb6d" stroke-width="1.1" points="367.19,-127.78 362.42,-124.43 364.06,-130.03 367.19,-127.78"/>
<text text-anchor="start" x="499.5" y="-263.44" font-family="Helvetica,sans-Serif" font-weight="bold" font-size="6.00" fill="#89bb6d">f=3</text>
<text text-anchor="start" x="483" y="-255.94" font-family="Helvetica,sans-Serif" font-weight="bold" font-size="6.00" fill="#89bb6d">mu=7,6 std=0,5</text>
</g>
<!-- artifact_parser&#45;&gt;data_consistency_auditor -->
<g id="edge11" class="edge">
<title>artifact_parser&#45;&gt;data_consistency_auditor</title>
<path fill="none" stroke="#91bd6f" stroke-width="1.16" d="M401,-368.45C401,-368.45 380,-304.41 380,-304.41 380,-304.41 347,-228.87 347,-228.87 347,-228.87 326,-216.87 326,-216.87 326,-216.87 323.55,-215.34 319.83,-213.01"/>
<polygon fill="#91bd6f" stroke="#91bd6f" stroke-width="1.16" points="321.25,-211.63 315.57,-210.34 319.21,-214.89 321.25,-211.63"/>
<text text-anchor="start" x="411.5" y="-329.98" font-family="Helvetica,sans-Serif" font-weight="bold" font-size="6.00" fill="#91bd6f">f=4</text>
<text text-anchor="start" x="395" y="-322.48" font-family="Helvetica,sans-Serif" font-weight="bold" font-size="6.00" fill="#91bd6f">mu=7,4 std=0,8</text>
</g>
<!-- artifact_parser&#45;&gt;benchmark_answer_judge -->
<g id="edge19" class="edge">
<title>artifact_parser&#45;&gt;benchmark_answer_judge</title>
<path fill="none" stroke="#bbcb7a" stroke-width="1.1" d="M550,-368.45C550,-368.45 529,-228.87 529,-228.87 529,-228.87 508,-216.87 508,-216.87 508,-216.87 505.39,-215.2 501.48,-212.69"/>
<polygon fill="#bbcb7a" stroke="#bbcb7a" stroke-width="1.1" points="502.55,-211.09 496.88,-209.74 500.47,-214.33 502.55,-211.09"/>
<text text-anchor="start" x="563.5" y="-329.98" font-family="Helvetica,sans-Serif" font-weight="bold" font-size="6.00" fill="#bbcb7a">f=3</text>
<text text-anchor="start" x="547" y="-322.48" font-family="Helvetica,sans-Serif" font-weight="bold" font-size="6.00" fill="#bbcb7a">mu=6,5 std=1,4</text>
</g>
<!-- artifact_parser&#45;&gt;bias_and_impact_auditor -->
<g id="edge16" class="edge">
<title>artifact_parser&#45;&gt;bias_and_impact_auditor</title>
<path fill="none" stroke="#81b96b" stroke-width="1.1" d="M494.44,-389.19C494.71,-376.12 495,-361.95 495,-361.95 495,-361.95 596,-349.95 596,-349.95 596,-349.95 617,-328.18 617,-328.18"/>
<path fill="none" stroke="#81b96b" stroke-width="1.1" d="M617,-326.18C617,-326.18 617,-313.51 617,-299.39"/>
<polygon fill="#81b96b" stroke="#81b96b" stroke-width="1.1" points="618.93,-299.56 617,-294.06 615.08,-299.56 618.93,-299.56"/>
<text text-anchor="start" x="511.5" y="-372.25" font-family="Helvetica,sans-Serif" font-weight="bold" font-size="6.00" fill="#81b96b">f=3</text>
<text text-anchor="start" x="495" y="-364.75" font-family="Helvetica,sans-Serif" font-weight="bold" font-size="6.00" fill="#81b96b">mu=7,7 std=0,6</text>
</g>
<!-- domain_reasoner&#45;&gt;COMPLETE -->
<g id="edge4" class="edge">
<title>domain_reasoner&#45;&gt;COMPLETE</title>
<path fill="none" stroke="#bfcc7b" stroke-width="1.69" d="M25,-57.29C25,-57.29 225.31,-34.27 309.46,-24.59"/>
<polygon fill="#bfcc7b" stroke="#bfcc7b" stroke-width="1.69" points="309.45,-26.53 314.69,-23.99 309.01,-22.71 309.45,-26.53"/>
<path fill="none" stroke="#bfcc7b" stroke-width="1.69" d="M123.41,-319.83C79.38,-310.05 0,-292.41 0,-292.41 0,-292.41 0,-228.87 0,-228.87 0,-228.87 21,-77.79 21,-77.79 21,-77.79 25,-59.29 25,-59.29"/>
<text text-anchor="start" x="28" y="-145.63" font-family="Helvetica,sans-Serif" font-weight="bold" font-size="6.00" fill="#bfcc7b">f=12</text>
<text text-anchor="start" x="13" y="-138.13" font-family="Helvetica,sans-Serif" font-weight="bold" font-size="6.00" fill="#bfcc7b">mu=6,4 std=2,1</text>
</g>
<!-- domain_reasoner&#45;&gt;formal_semantics_checker -->
<g id="edge7" class="edge">
<title>domain_reasoner&#45;&gt;formal_semantics_checker</title>
<path fill="none" stroke="#91be6f" stroke-width="1.29" d="M123.46,-319.67C80.46,-309.86 4,-292.41 4,-292.41 4,-292.41 4,-228.87 4,-228.87 4,-228.87 168,-216.87 168,-216.87 168,-216.87 170.5,-215.27 174.25,-212.86"/>
<polygon fill="#91be6f" stroke="#91be6f" stroke-width="1.29" points="175.29,-214.49 178.88,-209.9 173.21,-211.25 175.29,-214.49"/>
<text text-anchor="start" x="20.5" y="-263.44" font-family="Helvetica,sans-Serif" font-weight="bold" font-size="6.00" fill="#91be6f">f=6</text>
<text text-anchor="start" x="4" y="-255.94" font-family="Helvetica,sans-Serif" font-weight="bold" font-size="6.00" fill="#91be6f">mu=7,4 std=1,4</text>
</g>
<!-- domain_reasoner&#45;&gt;counterexample_hunter -->
<g id="edge13" class="edge">
<title>domain_reasoner&#45;&gt;counterexample_hunter</title>
<path fill="none" stroke="#63af63" stroke-width="1.1" d="M147.53,-304.6C146.16,-297.98 145,-292.41 145,-292.41 145,-292.41 130,-216.87 130,-216.87 130,-216.87 130,-162.33 130,-162.33 130,-162.33 237.29,-132.14 300.64,-114.32"/>
<polygon fill="#63af63" stroke="#63af63" stroke-width="1.1" points="301.01,-116.22 305.78,-112.88 299.97,-112.51 301.01,-116.22"/>
<text text-anchor="start" x="146.5" y="-192.4" font-family="Helvetica,sans-Serif" font-weight="bold" font-size="6.00" fill="#63af63">f=3</text>
<text text-anchor="start" x="130" y="-184.9" font-family="Helvetica,sans-Serif" font-weight="bold" font-size="6.00" fill="#63af63">mu=8,4 std=0,2</text>
</g>
<!-- domain_reasoner&#45;&gt;data_consistency_auditor -->
<g id="edge15" class="edge">
<title>domain_reasoner&#45;&gt;data_consistency_auditor</title>
<path fill="none" stroke="#68b064" stroke-width="1.1" d="M150.08,-304.6C149.5,-297.98 149,-292.41 149,-292.41 149,-292.41 149,-228.87 149,-228.87 149,-228.87 246,-216.87 246,-216.87 246,-216.87 246.79,-216.32 248.15,-215.38"/>
<polygon fill="#68b064" stroke="#68b064" stroke-width="1.1" points="248.89,-217.21 252.32,-212.5 246.7,-214.04 248.89,-217.21"/>
<text text-anchor="start" x="165.5" y="-263.44" font-family="Helvetica,sans-Serif" font-weight="bold" font-size="6.00" fill="#68b064">f=3</text>
<text text-anchor="start" x="149" y="-255.94" font-family="Helvetica,sans-Serif" font-weight="bold" font-size="6.00" fill="#68b064">mu=8,3 std=0,3</text>
</g>
<!-- domain_reasoner&#45;&gt;benchmark_answer_judge -->
<g id="edge12" class="edge">
<title>domain_reasoner&#45;&gt;benchmark_answer_judge</title>
<path fill="none" stroke="#a6c474" stroke-width="1.16" d="M123.5,-306.54C112.72,-299.11 103,-292.41 103,-292.41 103,-292.41 103,-228.87 103,-228.87 103,-228.87 392,-216.87 392,-216.87 392,-216.87 412.33,-209.75 431.82,-202.92"/>
<polygon fill="#a6c474" stroke="#a6c474" stroke-width="1.16" points="432.43,-204.75 436.99,-201.11 431.16,-201.11 432.43,-204.75"/>
<text text-anchor="start" x="119.5" y="-263.44" font-family="Helvetica,sans-Serif" font-weight="bold" font-size="6.00" fill="#a6c474">f=4</text>
<text text-anchor="start" x="103" y="-255.94" font-family="Helvetica,sans-Serif" font-weight="bold" font-size="6.00" fill="#a6c474">mu=6,9 std=0,4</text>
</g>
<!-- formal_semantics_checker&#45;&gt;COMPLETE -->
<g id="edge10" class="edge">
<title>formal_semantics_checker&#45;&gt;COMPLETE</title>
<path fill="none" stroke="#e9d985" stroke-width="1.29" d="M180.52,-170.35C173.53,-165.87 168,-162.33 168,-162.33 168,-162.33 25,-123.33 25,-123.33 25,-123.33 25,-59.29 25,-59.29"/>
<text text-anchor="start" x="41.5" y="-103.36" font-family="Helvetica,sans-Serif" font-weight="bold" font-size="6.00" fill="#e9d985">f=6</text>
<text text-anchor="start" x="25" y="-95.86" font-family="Helvetica,sans-Serif" font-weight="bold" font-size="6.00" fill="#e9d985">mu=5,5 std=2,2</text>
</g>
<!-- formal_semantics_checker&#45;&gt;domain_reasoner -->
<g id="edge20" class="edge">
<title>formal_semantics_checker&#45;&gt;domain_reasoner</title>
<path fill="none" stroke="#fedf8a" stroke-width="1.1" d="M205.39,-216.82C201.25,-246.98 195,-292.41 195,-292.41 195,-292.41 190.84,-295.68 185.11,-300.18"/>
<polygon fill="#fedf8a" stroke="#fedf8a" stroke-width="1.1" points="183.92,-298.66 180.79,-303.57 186.3,-301.69 183.92,-298.66"/>
<text text-anchor="start" x="220.5" y="-263.44" font-family="Helvetica,sans-Serif" font-weight="bold" font-size="6.00" fill="#fedf8a">f=3</text>
<text text-anchor="start" x="204" y="-255.94" font-family="Helvetica,sans-Serif" font-weight="bold" font-size="6.00" fill="#fedf8a">mu=5,0 std=1,5</text>
</g>
<!-- formal_semantics_checker&#45;&gt;counterexample_hunter -->
<g id="edge14" class="edge">
<title>formal_semantics_checker&#45;&gt;counterexample_hunter</title>
<path fill="none" stroke="#64b063" stroke-width="1.1" d="M237.42,-168.42C242.39,-164.9 246,-162.33 246,-162.33 246,-162.33 276.93,-143.53 304.39,-126.85"/>
<polygon fill="#64b063" stroke="#64b063" stroke-width="1.1" points="305.06,-128.69 308.76,-124.19 303.06,-125.4 305.06,-128.69"/>
<text text-anchor="start" x="307.5" y="-145.63" font-family="Helvetica,sans-Serif" font-weight="bold" font-size="6.00" fill="#64b063">f=3</text>
<text text-anchor="start" x="291" y="-138.13" font-family="Helvetica,sans-Serif" font-weight="bold" font-size="6.00" fill="#64b063">mu=8,4 std=0,3</text>
</g>
<!-- counterexample_hunter&#45;&gt;COMPLETE -->
<g id="edge5" class="edge">
<title>counterexample_hunter&#45;&gt;COMPLETE</title>
<path fill="none" stroke="#9dc172" stroke-width="1.49" d="M346,-77.93C346,-68.15 346,-56.52 346,-46.28"/>
<polygon fill="#9dc172" stroke="#9dc172" stroke-width="1.49" points="347.93,-46.54 346,-41.04 344.08,-46.54 347.93,-46.54"/>
<text text-anchor="start" x="362.5" y="-61.09" font-family="Helvetica,sans-Serif" font-weight="bold" font-size="6.00" fill="#9dc172">f=9</text>
<text text-anchor="start" x="346" y="-53.59" font-family="Helvetica,sans-Serif" font-weight="bold" font-size="6.00" fill="#9dc172">mu=7,1 std=1,6</text>
</g>
<!-- counterexample_hunter&#45;&gt;domain_reasoner -->
<g id="edge24" class="edge">
<title>counterexample_hunter&#45;&gt;domain_reasoner</title>
<path fill="none" stroke="#a3c373" stroke-width="0.97" d="M342.84,-123.08C335.52,-172.99 318,-292.41 318,-292.41 318,-292.41 235.9,-309.11 187.18,-319.02"/>
<polygon fill="#a3c373" stroke="#a3c373" stroke-width="0.97" points="186.98,-317.1 181.98,-320.08 187.75,-320.87 186.98,-317.1"/>
<text text-anchor="start" x="354.5" y="-192.4" font-family="Helvetica,sans-Serif" font-weight="bold" font-size="6.00" fill="#a3c373">f=1</text>
<text text-anchor="start" x="338" y="-184.9" font-family="Helvetica,sans-Serif" font-weight="bold" font-size="6.00" fill="#a3c373">mu=7,0 std=0,0</text>
</g>
<!-- data_consistency_auditor&#45;&gt;COMPLETE -->
<g id="edge8" class="edge">
<title>data_consistency_auditor&#45;&gt;COMPLETE</title>
<path fill="none" stroke="#a7c575" stroke-width="1.29" d="M253.69,-167.65C249.18,-164.53 246,-162.33 246,-162.33 246,-162.33 71,-77.79 71,-77.79 71,-77.79 25,-59.29 25,-59.29"/>
<text text-anchor="start" x="179.5" y="-103.36" font-family="Helvetica,sans-Serif" font-weight="bold" font-size="6.00" fill="#a7c575">f=6</text>
<text text-anchor="start" x="163" y="-95.86" font-family="Helvetica,sans-Serif" font-weight="bold" font-size="6.00" fill="#a7c575">mu=6,9 std=1,1</text>
</g>
<!-- data_consistency_auditor&#45;&gt;domain_reasoner -->
<g id="edge23" class="edge">
<title>data_consistency_auditor&#45;&gt;domain_reasoner</title>
<path fill="none" stroke="#75b568" stroke-width="0.97" d="M275.24,-216.82C265.17,-246.98 250,-292.41 250,-292.41 250,-292.41 215.03,-304.46 186.86,-314.17"/>
<polygon fill="#75b568" stroke="#75b568" stroke-width="0.97" points="186.57,-312.23 182,-315.84 187.82,-315.87 186.57,-312.23"/>
<text text-anchor="start" x="288.5" y="-263.44" font-family="Helvetica,sans-Serif" font-weight="bold" font-size="6.00" fill="#75b568">f=1</text>
<text text-anchor="start" x="272" y="-255.94" font-family="Helvetica,sans-Serif" font-weight="bold" font-size="6.00" fill="#75b568">mu=8,0 std=0,0</text>
</g>
<!-- benchmark_answer_judge&#45;&gt;COMPLETE -->
<g id="edge6" class="edge">
<title>benchmark_answer_judge&#45;&gt;COMPLETE</title>
<path fill="none" stroke="#83b96b" stroke-width="1.36" d="M484.3,-162.34C505.89,-129.57 540,-77.79 540,-77.79 540,-77.79 559,-59.29 559,-59.29"/>
<path fill="none" stroke="#83b96b" stroke-width="1.36" d="M559,-57.29C559,-57.29 442.53,-37.12 381.84,-26.6"/>
<polygon fill="#83b96b" stroke="#83b96b" stroke-width="1.36" points="382.5,-24.76 376.75,-25.72 381.85,-28.56 382.5,-24.76"/>
<text text-anchor="start" x="556.5" y="-103.36" font-family="Helvetica,sans-Serif" font-weight="bold" font-size="6.00" fill="#83b96b">f=7</text>
<text text-anchor="start" x="540" y="-95.86" font-family="Helvetica,sans-Serif" font-weight="bold" font-size="6.00" fill="#83b96b">mu=7,7 std=0,9</text>
</g>
<!-- bias_and_impact_auditor&#45;&gt;COMPLETE -->
<g id="edge18" class="edge">
<title>bias_and_impact_auditor&#45;&gt;COMPLETE</title>
<path fill="none" stroke="#8cbc6e" stroke-width="1.1" d="M610.55,-229.01C609.11,-222.16 608,-216.87 608,-216.87 608,-216.87 596,-150.33 596,-150.33 596,-150.33 595,-101.56 595,-101.56"/>
<text text-anchor="start" x="612.5" y="-145.63" font-family="Helvetica,sans-Serif" font-weight="bold" font-size="6.00" fill="#8cbc6e">f=3</text>
<text text-anchor="start" x="596" y="-138.13" font-family="Helvetica,sans-Serif" font-weight="bold" font-size="6.00" fill="#8cbc6e">mu=7,5 std=0,8</text>
</g>
<!-- bias_and_impact_auditor&#45;&gt;counterexample_hunter -->
<g id="edge21" class="edge">
<title>bias_and_impact_auditor&#45;&gt;counterexample_hunter</title>
<path fill="none" stroke="#5aac61" stroke-width="0.97" d="M603.51,-229.12C590.9,-200.58 574,-162.33 574,-162.33 574,-162.33 458.15,-131.45 391.61,-113.72"/>
<polygon fill="#5aac61" stroke="#5aac61" stroke-width="0.97" points="392.16,-111.87 386.35,-112.32 391.17,-115.59 392.16,-111.87"/>
<text text-anchor="start" x="613.5" y="-192.4" font-family="Helvetica,sans-Serif" font-weight="bold" font-size="6.00" fill="#5aac61">f=1</text>
<text text-anchor="start" x="597" y="-184.9" font-family="Helvetica,sans-Serif" font-weight="bold" font-size="6.00" fill="#5aac61">mu=8,6 std=0,0</text>
</g>
<!-- START -->
<g id="node1" class="node">
<title>START</title>
<path fill="#c2dcb6" stroke="#666666" stroke-width="0.8" d="M605.62,-512.28C605.62,-512.28 572.38,-512.28 572.38,-512.28 566.38,-512.28 560.38,-506.28 560.38,-500.28 560.38,-500.28 560.38,-485.49 560.38,-485.49 560.38,-479.49 566.38,-473.49 572.38,-473.49 572.38,-473.49 605.62,-473.49 605.62,-473.49 611.62,-473.49 617.62,-479.49 617.62,-485.49 617.62,-485.49 617.62,-500.28 617.62,-500.28 617.62,-506.28 611.62,-512.28 605.62,-512.28"/>
<text text-anchor="start" x="574" y="-501.21" font-family="Helvetica,sans-Serif" font-weight="bold" font-size="9.00">START</text>
<text text-anchor="start" x="582.25" y="-489.86" font-family="Helvetica,sans-Serif" font-weight="bold" font-size="7.00">f=57</text>
<text text-anchor="start" x="564.62" y="-479.61" font-family="Helvetica,sans-Serif" font-weight="bold" font-size="7.00">mu=7,6 std=1,1</text>
</g>
<!-- COMPLETE -->
<g id="node2" class="node">
<title>COMPLETE</title>
<path fill="#dbe4bc" stroke="#666666" stroke-width="0.8" d="M362.99,-38.79C362.99,-38.79 329.01,-38.79 329.01,-38.79 323.01,-38.79 317.01,-32.79 317.01,-26.79 317.01,-26.79 317.01,-12 317.01,-12 317.01,-6 323.01,0 329.01,0 329.01,0 362.99,0 362.99,0 368.99,0 374.99,-6 374.99,-12 374.99,-12 374.99,-26.79 374.99,-26.79 374.99,-32.79 368.99,-38.79 362.99,-38.79"/>
<text text-anchor="start" x="321.25" y="-27.72" font-family="Helvetica,sans-Serif" font-weight="bold" font-size="9.00">COMPLETE</text>
<text text-anchor="start" x="339.25" y="-16.37" font-family="Helvetica,sans-Serif" font-weight="bold" font-size="7.00">f=57</text>
<text text-anchor="start" x="321.62" y="-6.12" font-family="Helvetica,sans-Serif" font-weight="bold" font-size="7.00">mu=6,5 std=2,0</text>
</g>
<!-- artifact_parser -->
<g id="node3" class="node">
<title>artifact_parser</title>
<path fill="#d4e2ba" stroke="#666666" stroke-width="0.8" d="M510.62,-434.49C510.62,-434.49 477.38,-434.49 477.38,-434.49 471.38,-434.49 465.38,-428.49 465.38,-422.49 465.38,-422.49 465.38,-400.95 465.38,-400.95 465.38,-394.95 471.38,-388.95 477.38,-388.95 477.38,-388.95 510.62,-388.95 510.62,-388.95 516.62,-388.95 522.62,-394.95 522.62,-400.95 522.62,-400.95 522.62,-422.49 522.62,-422.49 522.62,-428.49 516.62,-434.49 510.62,-434.49"/>
<text text-anchor="start" x="478.62" y="-423.42" font-family="Helvetica,sans-Serif" font-weight="bold" font-size="9.00">artifact</text>
<text text-anchor="start" x="479.75" y="-414.42" font-family="Helvetica,sans-Serif" font-weight="bold" font-size="9.00">parser</text>
<text text-anchor="start" x="487.25" y="-405.32" font-family="Helvetica,sans-Serif" font-weight="bold" font-size="7.00">f=55</text>
<text text-anchor="start" x="469.62" y="-395.07" font-family="Helvetica,sans-Serif" font-weight="bold" font-size="7.00">mu=6,9 std=1,8</text>
</g>
<!-- domain_reasoner -->
<g id="node4" class="node">
<title>domain_reasoner</title>
<path fill="#d2e2ba" stroke="#666666" stroke-width="0.8" d="M168.62,-349.95C168.62,-349.95 135.38,-349.95 135.38,-349.95 129.38,-349.95 123.39,-343.95 123.39,-337.95 123.39,-337.95 123.39,-316.41 123.39,-316.41 123.39,-310.41 129.38,-304.41 135.38,-304.41 135.38,-304.41 168.62,-304.41 168.62,-304.41 174.62,-304.41 180.62,-310.41 180.62,-316.41 180.62,-316.41 180.62,-337.95 180.62,-337.95 180.62,-343.95 174.62,-349.95 168.62,-349.95"/>
<text text-anchor="start" x="136.25" y="-338.88" font-family="Helvetica,sans-Serif" font-weight="bold" font-size="9.00">domain</text>
<text text-anchor="start" x="132.5" y="-329.88" font-family="Helvetica,sans-Serif" font-weight="bold" font-size="9.00">reasoner</text>
<text text-anchor="start" x="145.25" y="-320.78" font-family="Helvetica,sans-Serif" font-weight="bold" font-size="7.00">f=28</text>
<text text-anchor="start" x="127.62" y="-310.53" font-family="Helvetica,sans-Serif" font-weight="bold" font-size="7.00">mu=6,9 std=1,3</text>
</g>
<!-- formal_semantics_checker -->
<g id="node5" class="node">
<title>formal_semantics_checker</title>
<path fill="#d0e1b9" stroke="#666666" stroke-width="0.8" d="M225.62,-216.87C225.62,-216.87 192.38,-216.87 192.38,-216.87 186.38,-216.87 180.38,-210.87 180.38,-204.87 180.38,-204.87 180.38,-174.33 180.38,-174.33 180.38,-168.33 186.38,-162.33 192.38,-162.33 192.38,-162.33 225.62,-162.33 225.62,-162.33 231.62,-162.33 237.62,-168.33 237.62,-174.33 237.62,-174.33 237.62,-204.87 237.62,-204.87 237.62,-210.87 231.62,-216.87 225.62,-216.87"/>
<text text-anchor="start" x="195.12" y="-205.8" font-family="Helvetica,sans-Serif" font-weight="bold" font-size="9.00">formal</text>
<text text-anchor="start" x="186.5" y="-196.8" font-family="Helvetica,sans-Serif" font-weight="bold" font-size="9.00">semantics</text>
<text text-anchor="start" x="191.38" y="-187.8" font-family="Helvetica,sans-Serif" font-weight="bold" font-size="9.00">checker</text>
<text text-anchor="start" x="202.25" y="-178.7" font-family="Helvetica,sans-Serif" font-weight="bold" font-size="7.00">f=12</text>
<text text-anchor="start" x="184.62" y="-168.45" font-family="Helvetica,sans-Serif" font-weight="bold" font-size="7.00">mu=7,0 std=1,4</text>
</g>
<!-- counterexample_hunter -->
<g id="node6" class="node">
<title>counterexample_hunter</title>
<path fill="#b6d8b2" stroke="#666666" stroke-width="0.8" d="M373.12,-123.33C373.12,-123.33 318.88,-123.33 318.88,-123.33 312.88,-123.33 306.88,-117.33 306.88,-111.33 306.88,-111.33 306.88,-89.79 306.88,-89.79 306.88,-83.79 312.88,-77.79 318.88,-77.79 318.88,-77.79 373.12,-77.79 373.12,-77.79 379.12,-77.79 385.12,-83.79 385.12,-89.79 385.12,-89.79 385.12,-111.33 385.12,-111.33 385.12,-117.33 379.12,-123.33 373.12,-123.33"/>
<text text-anchor="start" x="311.12" y="-112.26" font-family="Helvetica,sans-Serif" font-weight="bold" font-size="9.00">counterexample</text>
<text text-anchor="start" x="332.12" y="-103.26" font-family="Helvetica,sans-Serif" font-weight="bold" font-size="9.00">hunter</text>
<text text-anchor="start" x="339.25" y="-94.16" font-family="Helvetica,sans-Serif" font-weight="bold" font-size="7.00">f=10</text>
<text text-anchor="start" x="321.62" y="-83.91" font-family="Helvetica,sans-Serif" font-weight="bold" font-size="7.00">mu=8,2 std=0,5</text>
</g>
<!-- data_consistency_auditor -->
<g id="node7" class="node">
<title>data_consistency_auditor</title>
<path fill="#bfdcb4" stroke="#666666" stroke-width="0.8" d="M302.49,-216.87C302.49,-216.87 265.51,-216.87 265.51,-216.87 259.51,-216.87 253.51,-210.87 253.51,-204.87 253.51,-204.87 253.51,-174.33 253.51,-174.33 253.51,-168.33 259.51,-162.33 265.51,-162.33 265.51,-162.33 302.49,-162.33 302.49,-162.33 308.49,-162.33 314.49,-168.33 314.49,-174.33 314.49,-174.33 314.49,-204.87 314.49,-204.87 314.49,-210.87 308.49,-216.87 302.49,-216.87"/>
<text text-anchor="start" x="274.62" y="-205.8" font-family="Helvetica,sans-Serif" font-weight="bold" font-size="9.00">data</text>
<text text-anchor="start" x="257.75" y="-196.8" font-family="Helvetica,sans-Serif" font-weight="bold" font-size="9.00">consistency</text>
<text text-anchor="start" x="269" y="-187.8" font-family="Helvetica,sans-Serif" font-weight="bold" font-size="9.00">auditor</text>
<text text-anchor="start" x="279.12" y="-178.7" font-family="Helvetica,sans-Serif" font-weight="bold" font-size="7.00">f=7</text>
<text text-anchor="start" x="259.62" y="-168.45" font-family="Helvetica,sans-Serif" font-weight="bold" font-size="7.00">mu=7,8 std=0,8</text>
</g>
<!-- benchmark_answer_judge -->
<g id="node8" class="node">
<title>benchmark_answer_judge</title>
<path fill="#d7e3bb" stroke="#666666" stroke-width="0.8" d="M483.62,-216.87C483.62,-216.87 450.38,-216.87 450.38,-216.87 444.38,-216.87 438.38,-210.87 438.38,-204.87 438.38,-204.87 438.38,-174.33 438.38,-174.33 438.38,-168.33 444.38,-162.33 450.38,-162.33 450.38,-162.33 483.62,-162.33 483.62,-162.33 489.62,-162.33 495.62,-168.33 495.62,-174.33 495.62,-174.33 495.62,-204.87 495.62,-204.87 495.62,-210.87 489.62,-216.87 483.62,-216.87"/>
<text text-anchor="start" x="442.62" y="-205.8" font-family="Helvetica,sans-Serif" font-weight="bold" font-size="9.00">benchmark</text>
<text text-anchor="start" x="451.25" y="-196.8" font-family="Helvetica,sans-Serif" font-weight="bold" font-size="9.00">answer</text>
<text text-anchor="start" x="455.38" y="-187.8" font-family="Helvetica,sans-Serif" font-weight="bold" font-size="9.00">judge</text>
<text text-anchor="start" x="462.12" y="-178.7" font-family="Helvetica,sans-Serif" font-weight="bold" font-size="7.00">f=7</text>
<text text-anchor="start" x="442.62" y="-168.45" font-family="Helvetica,sans-Serif" font-weight="bold" font-size="7.00">mu=6,7 std=1,0</text>
</g>
<!-- bias_and_impact_auditor -->
<g id="node9" class="node">
<title>bias_and_impact_auditor</title>
<path fill="#bedbb4" stroke="#666666" stroke-width="0.8" d="M633.62,-292.41C633.62,-292.41 600.38,-292.41 600.38,-292.41 594.38,-292.41 588.38,-286.41 588.38,-280.41 588.38,-280.41 588.38,-240.87 588.38,-240.87 588.38,-234.87 594.38,-228.87 600.38,-228.87 600.38,-228.87 633.62,-228.87 633.62,-228.87 639.62,-228.87 645.62,-234.87 645.62,-240.87 645.62,-240.87 645.62,-280.41 645.62,-280.41 645.62,-286.41 639.62,-292.41 633.62,-292.41"/>
<text text-anchor="start" x="608" y="-281.34" font-family="Helvetica,sans-Serif" font-weight="bold" font-size="9.00">bias</text>
<text text-anchor="start" x="609.12" y="-272.34" font-family="Helvetica,sans-Serif" font-weight="bold" font-size="9.00">and</text>
<text text-anchor="start" x="602.38" y="-263.34" font-family="Helvetica,sans-Serif" font-weight="bold" font-size="9.00">impact</text>
<text text-anchor="start" x="602" y="-254.34" font-family="Helvetica,sans-Serif" font-weight="bold" font-size="9.00">auditor</text>
<text text-anchor="start" x="612.12" y="-245.24" font-family="Helvetica,sans-Serif" font-weight="bold" font-size="7.00">f=4</text>
<text text-anchor="start" x="592.62" y="-234.99" font-family="Helvetica,sans-Serif" font-weight="bold" font-size="7.00">mu=7,8 std=0,5</text>
</g>
</g>
</svg>
