<?xml version="1.0" encoding="UTF-8" standalone="no"?>
<!DOCTYPE svg PUBLIC "-//W3C//DTD SVG 1.1//EN"
 "http://www.w3.org/Graphics/SVG/1.1/DTD/svg11.dtd">
<!-- Generated by graphviz version 11.0.0 (20240428.1522)
 -->
<!-- Title: social_network_analysis Pages: 1 -->
<svg width="650pt" height="770pt"
 viewBox="2.16 2.16 648.04 767.40" xmlns="http://www.w3.org/2000/svg" xmlns:xlink="http://www.w3.org/1999/xlink">
<g id="graph0" class="graph" transform="scale(1 1) rotate(0) translate(3.6 765.96)">
<title>social_network_analysis</title>
<!-- START&#45;&gt;COMPLETE -->
<g id="edge21" class="edge">
<title>START&#45;&gt;COMPLETE</title>
<path fill="none" stroke="#fddb88" stroke-width="1.3" d="M545,-567.26C545,-567.26 588,-533.49 588,-533.49 588,-533.49 601,-475.72 601,-475.72 601,-475.72 601,-475.72 601,-328.91 601,-328.91 484,-77.79 484,-77.79 484,-77.79 431,-59.29 431,-59.29"/>
<text text-anchor="start" x="617.5" y="-379.48" font-family="Helvetica,sans-Serif" font-weight="bold" font-size="6.00" fill="#fddb88">f=2</text>
<text text-anchor="start" x="601" y="-371.98" font-family="Helvetica,sans-Serif" font-weight="bold" font-size="6.00" fill="#fddb88">mu=4,8 std=0,1</text>
</g>
<!-- START&#45;&gt;process_modeler -->
<g id="edge1" class="edge">
<title>START&#45;&gt;process_modeler</title>
<path fill="none" stroke="#c4ce7c" stroke-width="4.5" d="M207,-723.8C183.86,-706.99 153,-684.57 153,-684.57 153,-684.57 138.25,-635.96 127.9,-601.86"/>
<polygon fill="#c4ce7c" stroke="#c4ce7c" stroke-width="4.5" points="130.04,-601.46 126.37,-596.83 125.89,-602.72 130.04,-601.46"/>
<text text-anchor="start" x="168" y="-660.1" font-family="Helvetica,sans-Serif" font-weight="bold" font-size="6.00" fill="#c4ce7c">f=18</text>
<text text-anchor="start" x="153" y="-652.6" font-family="Helvetica,sans-Serif" font-weight="bold" font-size="6.00" fill="#c4ce7c">mu=6,3 std=2,0</text>
</g>
<!-- START&#45;&gt;event_log_interpreter -->
<g id="edge3" class="edge">
<title>START&#45;&gt;event_log_interpreter</title>
<path fill="none" stroke="#aec776" stroke-width="3.5" d="M232,-723.81C232,-715.34 232,-704.94 232,-694.94"/>
<polygon fill="#aec776" stroke="#aec776" stroke-width="3.5" points="233.93,-695.15 232,-689.65 230.08,-695.15 233.93,-695.15"/>
<text text-anchor="start" x="247" y="-706.87" font-family="Helvetica,sans-Serif" font-weight="bold" font-size="6.00" fill="#aec776">f=13</text>
<text text-anchor="start" x="232" y="-699.37" font-family="Helvetica,sans-Serif" font-weight="bold" font-size="6.00" fill="#aec776">mu=6,7 std=1,6</text>
</g>
<!-- START&#45;&gt;conformance_anomaly_checker -->
<g id="edge6" class="edge">
<title>START&#45;&gt;conformance_anomaly_checker</title>
<path fill="none" stroke="#79b669" stroke-width="2.3" d="M489,-656.3C489,-656.3 368,-415.95 368,-415.95 368,-415.95 366.04,-413.74 363.06,-410.39"/>
<polygon fill="#79b669" stroke="#79b669" stroke-width="2.3" points="364.65,-409.28 359.55,-406.44 361.77,-411.83 364.65,-409.28"/>
<path fill="none" stroke="#79b669" stroke-width="2.3" d="M260.49,-732.69C327.4,-710.91 489,-658.3 489,-658.3"/>
<text text-anchor="start" x="471.5" y="-571.06" font-family="Helvetica,sans-Serif" font-weight="bold" font-size="6.00" fill="#79b669">f=7</text>
<text text-anchor="start" x="455" y="-563.56" font-family="Helvetica,sans-Serif" font-weight="bold" font-size="6.00" fill="#79b669">mu=7,9 std=0,9</text>
</g>
<!-- START&#45;&gt;optimization_consultant -->
<g id="edge11" class="edge">
<title>START&#45;&gt;optimization_consultant</title>
<path fill="none" stroke="#73b467" stroke-width="1.7" d="M500,-524.99C500,-524.99 460,-430.95 460,-430.95 460,-430.95 460,-415.95 460,-415.95 460,-415.95 499,-310.41 499,-310.41 499,-310.41 517,-234.87 517,-234.87 517,-234.87 517,-219.87 517,-219.87 517,-219.87 474,-135.33 474,-135.33 474,-135.33 362,-123.33 362,-123.33 362,-123.33 336.03,-116.83 312.47,-110.94"/>
<polygon fill="#73b467" stroke="#73b467" stroke-width="1.7" points="313.24,-109.14 307.44,-109.68 312.3,-112.88 313.24,-109.14"/>
<path fill="none" stroke="#73b467" stroke-width="1.7" d="M489,-656.3C489,-656.3 527,-618.03 527,-618.03 527,-618.03 545,-569.26 545,-569.26"/>
<path fill="none" stroke="#73b467" stroke-width="1.7" d="M545,-567.26C545,-567.26 500,-526.99 500,-526.99"/>
<text text-anchor="start" x="476.5" y="-426.25" font-family="Helvetica,sans-Serif" font-weight="bold" font-size="6.00" fill="#73b467">f=4</text>
<text text-anchor="start" x="460" y="-418.75" font-family="Helvetica,sans-Serif" font-weight="bold" font-size="6.00" fill="#73b467">mu=8,1 std=0,1</text>
</g>
<!-- START&#45;&gt;query_and_sql_analyst -->
<g id="edge14" class="edge">
<title>START&#45;&gt;query_and_sql_analyst</title>
<path fill="none" stroke="#7db76a" stroke-width="1.5" d="M545,-567.26C545,-567.26 546,-506.49 546,-506.49 546,-506.49 546,-442.95 546,-442.95 546,-442.95 506.15,-365.47 481.34,-317.25"/>
<polygon fill="#7db76a" stroke="#7db76a" stroke-width="1.5" points="483.07,-316.39 478.84,-312.38 479.64,-318.15 483.07,-316.39"/>
<text text-anchor="start" x="561.5" y="-528.79" font-family="Helvetica,sans-Serif" font-weight="bold" font-size="6.00" fill="#7db76a">f=3</text>
<text text-anchor="start" x="545" y="-521.29" font-family="Helvetica,sans-Serif" font-weight="bold" font-size="6.00" fill="#7db76a">mu=7,8 std=1,2</text>
</g>
<!-- START&#45;&gt;fairness_and_ethics_reviewer -->
<g id="edge9" class="edge">
<title>START&#45;&gt;fairness_and_ethics_reviewer</title>
<path fill="none" stroke="#94bf70" stroke-width="2.1" d="M489,-656.3C489,-656.3 468,-545.49 468,-545.49 468,-545.49 390.02,-511.91 342.27,-491.34"/>
<polygon fill="#94bf70" stroke="#94bf70" stroke-width="2.1" points="343.32,-489.7 337.51,-489.29 341.8,-493.23 343.32,-489.7"/>
<text text-anchor="start" x="497.5" y="-613.33" font-family="Helvetica,sans-Serif" font-weight="bold" font-size="6.00" fill="#94bf70">f=6</text>
<text text-anchor="start" x="481" y="-605.83" font-family="Helvetica,sans-Serif" font-weight="bold" font-size="6.00" fill="#94bf70">mu=7,3 std=1,3</text>
</g>
<!-- START&#45;&gt;hypothesis_generator -->
<g id="edge12" class="edge">
<title>START&#45;&gt;hypothesis_generator</title>
<path fill="none" stroke="#74b467" stroke-width="1.7" d="M500,-524.99C500,-524.99 500,-442.95 500,-442.95 500,-442.95 506,-430.95 506,-430.95 506,-430.95 517,-234.87 517,-234.87 517,-234.87 517,-219.87 517,-219.87 517,-219.87 499.25,-211.43 481.5,-202.98"/>
<polygon fill="#74b467" stroke="#74b467" stroke-width="1.7" points="482.59,-201.37 476.79,-200.75 480.93,-204.85 482.59,-201.37"/>
<text text-anchor="start" x="516.5" y="-477.52" font-family="Helvetica,sans-Serif" font-weight="bold" font-size="6.00" fill="#74b467">f=4</text>
<text text-anchor="start" x="500" y="-470.02" font-family="Helvetica,sans-Serif" font-weight="bold" font-size="6.00" fill="#74b467">mu=8,0 std=0,9</text>
</g>
<!-- process_modeler&#45;&gt;COMPLETE -->
<g id="edge2" class="edge">
<title>process_modeler&#45;&gt;COMPLETE</title>
<path fill="none" stroke="#d6d381" stroke-width="3.9" d="M67,-524.99C67,-524.99 52,-310.41 52,-310.41 52,-310.41 52,-228.37 52,-228.37"/>
<path fill="none" stroke="#d6d381" stroke-width="3.9" d="M90.71,-545.71C78.58,-536.14 67,-526.99 67,-526.99"/>
<text text-anchor="start" x="67" y="-281.44" font-family="Helvetica,sans-Serif" font-weight="bold" font-size="6.00" fill="#d6d381">f=15</text>
<text text-anchor="start" x="52" y="-273.94" font-family="Helvetica,sans-Serif" font-weight="bold" font-size="6.00" fill="#d6d381">mu=5,9 std=2,2</text>
</g>
<!-- process_modeler&#45;&gt;process_modeler -->
<g id="edge29" class="edge">
<title>process_modeler&#45;&gt;process_modeler</title>
<path fill="none" stroke="#ef9d65" stroke-width="1.1" d="M146.32,-576.18C155.41,-576.1 162.62,-573.46 162.62,-568.26 162.62,-564.52 158.89,-562.11 153.42,-561.01"/>
<polygon fill="#ef9d65" stroke="#ef9d65" stroke-width="1.1" points="153.63,-559.1 147.98,-560.49 153.27,-562.93 153.63,-559.1"/>
<text text-anchor="start" x="179.12" y="-571.06" font-family="Helvetica,sans-Serif" font-weight="bold" font-size="6.00" fill="#ef9d65">f=1</text>
<text text-anchor="start" x="162.62" y="-563.56" font-family="Helvetica,sans-Serif" font-weight="bold" font-size="6.00" fill="#ef9d65">mu=3,1 std=0,0</text>
</g>
<!-- process_modeler&#45;&gt;conformance_anomaly_checker -->
<g id="edge15" class="edge">
<title>process_modeler&#45;&gt;conformance_anomaly_checker</title>
<path fill="none" stroke="#aac675" stroke-width="1.5" d="M67,-524.99C67,-524.99 220.56,-440.27 294.76,-399.33"/>
<polygon fill="#aac675" stroke="#aac675" stroke-width="1.5" points="295.39,-401.18 299.27,-396.84 293.53,-397.81 295.39,-401.18"/>
<text text-anchor="start" x="227.5" y="-477.52" font-family="Helvetica,sans-Serif" font-weight="bold" font-size="6.00" fill="#aac675">f=3</text>
<text text-anchor="start" x="211" y="-470.02" font-family="Helvetica,sans-Serif" font-weight="bold" font-size="6.00" fill="#aac675">mu=6,8 std=0,5</text>
</g>
<!-- process_modeler&#45;&gt;optimization_consultant -->
<g id="edge20" class="edge">
<title>process_modeler&#45;&gt;optimization_consultant</title>
<path fill="none" stroke="#f9df8a" stroke-width="1.3" d="M121.19,-545.53C130.01,-485.61 154,-322.41 154,-322.41 154,-322.41 186,-135.33 186,-135.33 186,-135.33 213.97,-124.72 238.55,-115.39"/>
<polygon fill="#f9df8a" stroke="#f9df8a" stroke-width="1.3" points="239.07,-117.25 243.52,-113.5 237.7,-113.65 239.07,-117.25"/>
<text text-anchor="start" x="170.5" y="-332.71" font-family="Helvetica,sans-Serif" font-weight="bold" font-size="6.00" fill="#f9df8a">f=2</text>
<text text-anchor="start" x="154" y="-325.21" font-family="Helvetica,sans-Serif" font-weight="bold" font-size="6.00" fill="#f9df8a">mu=5,1 std=2,7</text>
</g>
<!-- process_modeler&#45;&gt;fairness_and_ethics_reviewer -->
<g id="edge24" class="edge">
<title>process_modeler&#45;&gt;fairness_and_ethics_reviewer</title>
<path fill="none" stroke="#ccd07e" stroke-width="1.1" d="M146.55,-553.36C180.05,-537.05 235.57,-510.01 271.46,-492.54"/>
<polygon fill="#ccd07e" stroke="#ccd07e" stroke-width="1.1" points="271.89,-494.47 275.99,-490.33 270.2,-491.01 271.89,-494.47"/>
<text text-anchor="start" x="233.5" y="-528.79" font-family="Helvetica,sans-Serif" font-weight="bold" font-size="6.00" fill="#ccd07e">f=1</text>
<text text-anchor="start" x="217" y="-521.29" font-family="Helvetica,sans-Serif" font-weight="bold" font-size="6.00" fill="#ccd07e">mu=6,1 std=0,0</text>
</g>
<!-- event_log_interpreter&#45;&gt;COMPLETE -->
<g id="edge5" class="edge">
<title>event_log_interpreter&#45;&gt;COMPLETE</title>
<path fill="none" stroke="#c6ce7c" stroke-width="2.7" d="M52,-226.37C52,-226.37 133,-135.33 133,-135.33 133,-135.33 176,-101.56 176,-101.56"/>
<path fill="none" stroke="#c6ce7c" stroke-width="2.7" d="M176,-99.56C176,-99.56 215.77,-67.76 244.89,-44.47"/>
<polygon fill="#c6ce7c" stroke="#c6ce7c" stroke-width="2.7" points="245.75,-46.25 248.85,-41.31 243.35,-43.24 245.75,-46.25"/>
<path fill="none" stroke="#c6ce7c" stroke-width="2.7" d="M203.59,-633.68C200.81,-631.47 199,-630.03 199,-630.03 199,-630.03 0,-569.26 0,-569.26 0,-569.26 0,-569.26 0,-375.68 0,-375.68 7,-322.41 7,-322.41 7,-322.41 52,-228.37 52,-228.37"/>
<text text-anchor="start" x="23.5" y="-332.71" font-family="Helvetica,sans-Serif" font-weight="bold" font-size="6.00" fill="#c6ce7c">f=9</text>
<text text-anchor="start" x="7" y="-325.21" font-family="Helvetica,sans-Serif" font-weight="bold" font-size="6.00" fill="#c6ce7c">mu=6,2 std=1,9</text>
</g>
<!-- event_log_interpreter&#45;&gt;process_modeler -->
<g id="edge25" class="edge">
<title>event_log_interpreter&#45;&gt;process_modeler</title>
<path fill="none" stroke="#dad482" stroke-width="1.1" d="M203.53,-634.56C187.88,-622.62 168.38,-607.73 151.95,-595.18"/>
<polygon fill="#dad482" stroke="#dad482" stroke-width="1.1" points="153.37,-593.84 147.83,-592.03 151.03,-596.9 153.37,-593.84"/>
<text text-anchor="start" x="197.5" y="-613.33" font-family="Helvetica,sans-Serif" font-weight="bold" font-size="6.00" fill="#dad482">f=1</text>
<text text-anchor="start" x="181" y="-605.83" font-family="Helvetica,sans-Serif" font-weight="bold" font-size="6.00" fill="#dad482">mu=5,8 std=0,0</text>
</g>
<!-- event_log_interpreter&#45;&gt;optimization_consultant -->
<g id="edge16" class="edge">
<title>event_log_interpreter&#45;&gt;optimization_consultant</title>
<path fill="none" stroke="#b0c877" stroke-width="1.5" d="M230.45,-630.24C226.62,-565.77 217,-403.95 217,-403.95 217,-403.95 214,-234.87 214,-234.87 214,-234.87 214,-219.87 214,-219.87 214,-219.87 242.3,-164.98 260.35,-129.97"/>
<polygon fill="#b0c877" stroke="#b0c877" stroke-width="1.5" points="261.96,-131.05 262.77,-125.28 258.54,-129.28 261.96,-131.05"/>
<text text-anchor="start" x="233.5" y="-379.48" font-family="Helvetica,sans-Serif" font-weight="bold" font-size="6.00" fill="#b0c877">f=3</text>
<text text-anchor="start" x="217" y="-371.98" font-family="Helvetica,sans-Serif" font-weight="bold" font-size="6.00" fill="#b0c877">mu=6,7 std=0,2</text>
</g>
<!-- conformance_anomaly_checker&#45;&gt;COMPLETE -->
<g id="edge4" class="edge">
<title>conformance_anomaly_checker&#45;&gt;COMPLETE</title>
<path fill="none" stroke="#92be6f" stroke-width="2.7" d="M431,-57.29C431,-57.29 359.31,-40.33 313.13,-29.41"/>
<polygon fill="#92be6f" stroke="#92be6f" stroke-width="2.7" points="313.75,-27.58 307.95,-28.19 312.86,-31.33 313.75,-27.58"/>
<path fill="none" stroke="#92be6f" stroke-width="2.7" d="M329.59,-349.51C326.53,-331.35 323,-310.41 323,-310.41 323,-310.41 316,-234.87 316,-234.87 316,-234.87 316,-219.87 316,-219.87 316,-219.87 375,-101.56 375,-101.56"/>
<path fill="none" stroke="#92be6f" stroke-width="2.7" d="M375,-99.56C375,-99.56 431,-59.29 431,-59.29"/>
<text text-anchor="start" x="360.5" y="-187.9" font-family="Helvetica,sans-Serif" font-weight="bold" font-size="6.00" fill="#92be6f">f=9</text>
<text text-anchor="start" x="344" y="-180.4" font-family="Helvetica,sans-Serif" font-weight="bold" font-size="6.00" fill="#92be6f">mu=7,4 std=1,2</text>
</g>
<!-- conformance_anomaly_checker&#45;&gt;query_and_sql_analyst -->
<g id="edge19" class="edge">
<title>conformance_anomaly_checker&#45;&gt;query_and_sql_analyst</title>
<path fill="none" stroke="#c0cd7b" stroke-width="1.3" d="M366.4,-351.38C391.13,-332.82 421,-310.41 421,-310.41 421,-310.41 423.73,-308.36 427.79,-305.32"/>
<polygon fill="#c0cd7b" stroke="#c0cd7b" stroke-width="1.3" points="428.71,-307.03 431.95,-302.19 426.4,-303.95 428.71,-307.03"/>
<text text-anchor="start" x="420.5" y="-332.71" font-family="Helvetica,sans-Serif" font-weight="bold" font-size="6.00" fill="#c0cd7b">f=2</text>
<text text-anchor="start" x="404" y="-325.21" font-family="Helvetica,sans-Serif" font-weight="bold" font-size="6.00" fill="#c0cd7b">mu=6,3 std=1,6</text>
</g>
<!-- conformance_anomaly_checker&#45;&gt;hypothesis_generator -->
<g id="edge22" class="edge">
<title>conformance_anomaly_checker&#45;&gt;hypothesis_generator</title>
<path fill="none" stroke="#91bd6f" stroke-width="1.1" d="M353.14,-349.52C358.06,-342.79 362,-337.41 362,-337.41 362,-337.41 383,-246.87 383,-246.87 383,-246.87 401.8,-228.73 418.86,-212.28"/>
<polygon fill="#91bd6f" stroke="#91bd6f" stroke-width="1.1" points="419.79,-214.06 422.41,-208.85 417.12,-211.29 419.79,-214.06"/>
<text text-anchor="start" x="399.5" y="-281.44" font-family="Helvetica,sans-Serif" font-weight="bold" font-size="6.00" fill="#91bd6f">f=1</text>
<text text-anchor="start" x="383" y="-273.94" font-family="Helvetica,sans-Serif" font-weight="bold" font-size="6.00" fill="#91bd6f">mu=7,4 std=0,0</text>
</g>
<!-- optimization_consultant&#45;&gt;COMPLETE -->
<g id="edge7" class="edge">
<title>optimization_consultant&#45;&gt;COMPLETE</title>
<path fill="none" stroke="#7cb769" stroke-width="2.3" d="M275,-77.93C275,-68.53 275,-57.43 275,-47.49"/>
<polygon fill="#7cb769" stroke="#7cb769" stroke-width="2.3" points="276.93,-47.76 275,-42.26 273.08,-47.76 276.93,-47.76"/>
<text text-anchor="start" x="291.5" y="-61.09" font-family="Helvetica,sans-Serif" font-weight="bold" font-size="6.00" fill="#7cb769">f=7</text>
<text text-anchor="start" x="275" y="-53.59" font-family="Helvetica,sans-Serif" font-weight="bold" font-size="6.00" fill="#7cb769">mu=7,9 std=0,6</text>
</g>
<!-- optimization_consultant&#45;&gt;process_modeler -->
<g id="edge17" class="edge">
<title>optimization_consultant&#45;&gt;process_modeler</title>
<path fill="none" stroke="#7eb86a" stroke-width="1.3" d="M244.92,-109.17C220.12,-115.45 189,-123.33 189,-123.33 189,-123.33 140,-135.33 140,-135.33 140,-135.33 98,-310.41 98,-310.41 98,-310.41 91,-322.41 91,-322.41 91,-322.41 91,-337.41 91,-337.41 91,-337.41 111,-533.49 111,-533.49 111,-533.49 111.41,-535.45 112.03,-538.44"/>
<polygon fill="#7eb86a" stroke="#7eb86a" stroke-width="1.3" points="110.13,-538.76 113.13,-543.76 113.9,-537.98 110.13,-538.76"/>
<text text-anchor="start" x="107.5" y="-332.71" font-family="Helvetica,sans-Serif" font-weight="bold" font-size="6.00" fill="#7eb86a">f=2</text>
<text text-anchor="start" x="91" y="-325.21" font-family="Helvetica,sans-Serif" font-weight="bold" font-size="6.00" fill="#7eb86a">mu=7,8 std=0,2</text>
</g>
<!-- optimization_consultant&#45;&gt;conformance_anomaly_checker -->
<g id="edge27" class="edge">
<title>optimization_consultant&#45;&gt;conformance_anomaly_checker</title>
<path fill="none" stroke="#f0dc87" stroke-width="1.1" d="M290.99,-123.16C303.93,-140.62 320,-162.33 320,-162.33 320,-162.33 320,-234.87 320,-234.87 320,-234.87 364,-310.41 364,-310.41 364,-310.41 385,-322.41 385,-322.41 385,-322.41 385,-337.41 385,-337.41 385,-337.41 379.44,-341.58 372,-347.17"/>
<polygon fill="#f0dc87" stroke="#f0dc87" stroke-width="1.1" points="371.16,-345.39 367.92,-350.23 373.47,-348.47 371.16,-345.39"/>
<text text-anchor="start" x="336.5" y="-230.17" font-family="Helvetica,sans-Serif" font-weight="bold" font-size="6.00" fill="#f0dc87">f=1</text>
<text text-anchor="start" x="320" y="-222.67" font-family="Helvetica,sans-Serif" font-weight="bold" font-size="6.00" fill="#f0dc87">mu=5,3 std=0,0</text>
</g>
<!-- query_and_sql_analyst&#45;&gt;COMPLETE -->
<g id="edge8" class="edge">
<title>query_and_sql_analyst&#45;&gt;COMPLETE</title>
<path fill="none" stroke="#8ebd6e" stroke-width="2.1" d="M435.5,-247.01C429.57,-240.16 425,-234.87 425,-234.87 425,-234.87 409,-207.87 409,-207.87 409,-207.87 375,-101.56 375,-101.56"/>
<text text-anchor="start" x="406.5" y="-145.63" font-family="Helvetica,sans-Serif" font-weight="bold" font-size="6.00" fill="#8ebd6e">f=6</text>
<text text-anchor="start" x="390" y="-138.13" font-family="Helvetica,sans-Serif" font-weight="bold" font-size="6.00" fill="#8ebd6e">mu=7,5 std=0,9</text>
</g>
<!-- query_and_sql_analyst&#45;&gt;hypothesis_generator -->
<g id="edge23" class="edge">
<title>query_and_sql_analyst&#45;&gt;hypothesis_generator</title>
<path fill="none" stroke="#91bd6f" stroke-width="1.1" d="M468.45,-247.01C469.89,-240.16 471,-234.87 471,-234.87 471,-234.87 471,-219.87 471,-219.87 471,-219.87 468.96,-217.11 466.05,-213.18"/>
<polygon fill="#91bd6f" stroke="#91bd6f" stroke-width="1.1" points="467.78,-212.29 462.97,-209.02 464.69,-214.58 467.78,-212.29"/>
<text text-anchor="start" x="487.5" y="-230.17" font-family="Helvetica,sans-Serif" font-weight="bold" font-size="6.00" fill="#91bd6f">f=1</text>
<text text-anchor="start" x="471" y="-222.67" font-family="Helvetica,sans-Serif" font-weight="bold" font-size="6.00" fill="#91bd6f">mu=7,4 std=0,0</text>
</g>
<!-- fairness_and_ethics_reviewer&#45;&gt;COMPLETE -->
<g id="edge10" class="edge">
<title>fairness_and_ethics_reviewer&#45;&gt;COMPLETE</title>
<path fill="none" stroke="#b0c877" stroke-width="2.1" d="M295.36,-443.26C264.31,-354.38 176,-101.56 176,-101.56"/>
<text text-anchor="start" x="237.5" y="-230.17" font-family="Helvetica,sans-Serif" font-weight="bold" font-size="6.00" fill="#b0c877">f=6</text>
<text text-anchor="start" x="221" y="-222.67" font-family="Helvetica,sans-Serif" font-weight="bold" font-size="6.00" fill="#b0c877">mu=6,7 std=1,7</text>
</g>
<!-- fairness_and_ethics_reviewer&#45;&gt;conformance_anomaly_checker -->
<g id="edge26" class="edge">
<title>fairness_and_ethics_reviewer&#45;&gt;conformance_anomaly_checker</title>
<path fill="none" stroke="#ecda86" stroke-width="1.1" d="M314.94,-443.07C317.96,-432.71 321.34,-421.11 324.41,-410.58"/>
<polygon fill="#ecda86" stroke="#ecda86" stroke-width="1.1" points="326.21,-411.26 325.91,-405.45 322.52,-410.19 326.21,-411.26"/>
<text text-anchor="start" x="338.5" y="-426.25" font-family="Helvetica,sans-Serif" font-weight="bold" font-size="6.00" fill="#ecda86">f=1</text>
<text text-anchor="start" x="322" y="-418.75" font-family="Helvetica,sans-Serif" font-weight="bold" font-size="6.00" fill="#ecda86">mu=5,4 std=0,0</text>
</g>
<!-- hypothesis_generator&#45;&gt;COMPLETE -->
<g id="edge13" class="edge">
<title>hypothesis_generator&#45;&gt;COMPLETE</title>
<path fill="none" stroke="#6fb366" stroke-width="1.5" d="M443.39,-162.36C439.09,-126.6 431,-59.29 431,-59.29"/>
<text text-anchor="start" x="454.5" y="-103.36" font-family="Helvetica,sans-Serif" font-weight="bold" font-size="6.00" fill="#6fb366">f=3</text>
<text text-anchor="start" x="438" y="-95.86" font-family="Helvetica,sans-Serif" font-weight="bold" font-size="6.00" fill="#6fb366">mu=8,1 std=0,2</text>
</g>
<!-- hypothesis_generator&#45;&gt;optimization_consultant -->
<g id="edge28" class="edge">
<title>hypothesis_generator&#45;&gt;optimization_consultant</title>
<path fill="none" stroke="#f5dd89" stroke-width="1.1" d="M434.96,-162.57C428.26,-149.5 421,-135.33 421,-135.33 421,-135.33 362,-123.33 362,-123.33 362,-123.33 335.58,-116.72 311.86,-110.78"/>
<polygon fill="#f5dd89" stroke="#f5dd89" stroke-width="1.1" points="312.36,-108.92 306.56,-109.46 311.42,-112.66 312.36,-108.92"/>
<text text-anchor="start" x="444.5" y="-145.63" font-family="Helvetica,sans-Serif" font-weight="bold" font-size="6.00" fill="#f5dd89">f=1</text>
<text text-anchor="start" x="428" y="-138.13" font-family="Helvetica,sans-Serif" font-weight="bold" font-size="6.00" fill="#f5dd89">mu=5,2 std=0,0</text>
</g>
<!-- hypothesis_generator&#45;&gt;query_and_sql_analyst -->
<g id="edge18" class="edge">
<title>hypothesis_generator&#45;&gt;query_and_sql_analyst</title>
<path fill="none" stroke="#8cbc6e" stroke-width="1.3" d="M435.14,-207.68C431.81,-214.3 429,-219.87 429,-219.87 429,-219.87 429,-234.87 429,-234.87 429,-234.87 430.93,-237.37 433.85,-241.16"/>
<polygon fill="#8cbc6e" stroke="#8cbc6e" stroke-width="1.3" points="432.28,-242.28 437.17,-245.45 435.33,-239.92 432.28,-242.28"/>
<text text-anchor="start" x="445.5" y="-230.17" font-family="Helvetica,sans-Serif" font-weight="bold" font-size="6.00" fill="#8cbc6e">f=2</text>
<text text-anchor="start" x="429" y="-222.67" font-family="Helvetica,sans-Serif" font-weight="bold" font-size="6.00" fill="#8cbc6e">mu=7,5 std=0,3</text>
</g>
<!-- START -->
<g id="node1" class="node">
<title>START</title>
<path fill="#bedcb4" stroke="#666666" stroke-width="0.8" d="M248.62,-762.36C248.62,-762.36 215.38,-762.36 215.38,-762.36 209.38,-762.36 203.38,-756.36 203.38,-750.36 203.38,-750.36 203.38,-735.57 203.38,-735.57 203.38,-729.57 209.38,-723.57 215.38,-723.57 215.38,-723.57 248.62,-723.57 248.62,-723.57 254.62,-723.57 260.62,-729.57 260.62,-735.57 260.62,-735.57 260.62,-750.36 260.62,-750.36 260.62,-756.36 254.62,-762.36 248.62,-762.36"/>
<text text-anchor="start" x="217" y="-751.29" font-family="Helvetica,sans-Serif" font-weight="bold" font-size="9.00">START</text>
<text text-anchor="start" x="225.25" y="-739.94" font-family="Helvetica,sans-Serif" font-weight="bold" font-size="7.00">f=57</text>
<text text-anchor="start" x="207.62" y="-729.69" font-family="Helvetica,sans-Serif" font-weight="bold" font-size="7.00">mu=7,8 std=1,4</text>
</g>
<!-- COMPLETE -->
<g id="node2" class="node">
<title>COMPLETE</title>
<path fill="#d6e3ba" stroke="#666666" stroke-width="0.8" d="M291.99,-38.79C291.99,-38.79 258.01,-38.79 258.01,-38.79 252.01,-38.79 246.01,-32.79 246.01,-26.79 246.01,-26.79 246.01,-12 246.01,-12 246.01,-6 252.01,0 258.01,0 258.01,0 291.99,0 291.99,0 297.99,0 303.99,-6 303.99,-12 303.99,-12 303.99,-26.79 303.99,-26.79 303.99,-32.79 297.99,-38.79 291.99,-38.79"/>
<text text-anchor="start" x="250.25" y="-27.72" font-family="Helvetica,sans-Serif" font-weight="bold" font-size="9.00">COMPLETE</text>
<text text-anchor="start" x="268.25" y="-16.37" font-family="Helvetica,sans-Serif" font-weight="bold" font-size="7.00">f=57</text>
<text text-anchor="start" x="250.62" y="-6.12" font-family="Helvetica,sans-Serif" font-weight="bold" font-size="7.00">mu=6,7 std=1,8</text>
</g>
<!-- process_modeler -->
<g id="node3" class="node">
<title>process_modeler</title>
<path fill="#e2e6be" stroke="#666666" stroke-width="0.8" d="M134.62,-591.03C134.62,-591.03 101.38,-591.03 101.38,-591.03 95.39,-591.03 89.39,-585.03 89.39,-579.03 89.39,-579.03 89.39,-557.49 89.39,-557.49 89.39,-551.49 95.39,-545.49 101.39,-545.49 101.39,-545.49 134.62,-545.49 134.62,-545.49 140.62,-545.49 146.62,-551.49 146.62,-557.49 146.62,-557.49 146.62,-579.03 146.62,-579.03 146.62,-585.03 140.62,-591.03 134.62,-591.03"/>
<text text-anchor="start" x="100.38" y="-579.96" font-family="Helvetica,sans-Serif" font-weight="bold" font-size="9.00">process</text>
<text text-anchor="start" x="100.38" y="-570.96" font-family="Helvetica,sans-Serif" font-weight="bold" font-size="9.00">modeler</text>
<text text-anchor="start" x="111.25" y="-561.86" font-family="Helvetica,sans-Serif" font-weight="bold" font-size="7.00">f=22</text>
<text text-anchor="start" x="93.62" y="-551.61" font-family="Helvetica,sans-Serif" font-weight="bold" font-size="7.00">mu=6,2 std=2,0</text>
</g>
<!-- event_log_interpreter -->
<g id="node4" class="node">
<title>event_log_interpreter</title>
<path fill="#d6e3ba" stroke="#666666" stroke-width="0.8" d="M248.62,-684.57C248.62,-684.57 215.38,-684.57 215.38,-684.57 209.38,-684.57 203.38,-678.57 203.38,-672.57 203.38,-672.57 203.38,-642.03 203.38,-642.03 203.38,-636.03 209.38,-630.03 215.38,-630.03 215.38,-630.03 248.62,-630.03 248.62,-630.03 254.62,-630.03 260.62,-636.03 260.62,-642.03 260.62,-642.03 260.62,-672.57 260.62,-672.57 260.62,-678.57 254.62,-684.57 248.62,-684.57"/>
<text text-anchor="start" x="220" y="-673.5" font-family="Helvetica,sans-Serif" font-weight="bold" font-size="9.00">event</text>
<text text-anchor="start" x="225.62" y="-664.5" font-family="Helvetica,sans-Serif" font-weight="bold" font-size="9.00">log</text>
<text text-anchor="start" x="209.12" y="-655.5" font-family="Helvetica,sans-Serif" font-weight="bold" font-size="9.00">interpreter</text>
<text text-anchor="start" x="225.25" y="-646.4" font-family="Helvetica,sans-Serif" font-weight="bold" font-size="7.00">f=13</text>
<text text-anchor="start" x="207.62" y="-636.15" font-family="Helvetica,sans-Serif" font-weight="bold" font-size="7.00">mu=6,7 std=1,6</text>
</g>
<!-- conformance_anomaly_checker -->
<g id="node5" class="node">
<title>conformance_anomaly_checker</title>
<path fill="#cce0b8" stroke="#666666" stroke-width="0.8" d="M354.74,-403.95C354.74,-403.95 313.26,-403.95 313.26,-403.95 307.26,-403.95 301.26,-397.95 301.26,-391.95 301.26,-391.95 301.26,-361.41 301.26,-361.41 301.26,-355.41 307.26,-349.41 313.26,-349.41 313.26,-349.41 354.74,-349.41 354.74,-349.41 360.74,-349.41 366.74,-355.41 366.74,-361.41 366.74,-361.41 366.74,-391.95 366.74,-391.95 366.74,-397.95 360.74,-403.95 354.74,-403.95"/>
<text text-anchor="start" x="305.5" y="-392.88" font-family="Helvetica,sans-Serif" font-weight="bold" font-size="9.00">conformance</text>
<text text-anchor="start" x="315.62" y="-383.88" font-family="Helvetica,sans-Serif" font-weight="bold" font-size="9.00">anomaly</text>
<text text-anchor="start" x="316.38" y="-374.88" font-family="Helvetica,sans-Serif" font-weight="bold" font-size="9.00">checker</text>
<text text-anchor="start" x="327.25" y="-365.78" font-family="Helvetica,sans-Serif" font-weight="bold" font-size="7.00">f=12</text>
<text text-anchor="start" x="309.62" y="-355.53" font-family="Helvetica,sans-Serif" font-weight="bold" font-size="7.00">mu=7,2 std=1,2</text>
</g>
<!-- optimization_consultant -->
<g id="node6" class="node">
<title>optimization_consultant</title>
<path fill="#d6e3ba" stroke="#666666" stroke-width="0.8" d="M293.12,-123.33C293.12,-123.33 256.88,-123.33 256.88,-123.33 250.88,-123.33 244.88,-117.33 244.88,-111.33 244.88,-111.33 244.88,-89.79 244.88,-89.79 244.88,-83.79 250.88,-77.79 256.88,-77.79 256.88,-77.79 293.12,-77.79 293.12,-77.79 299.12,-77.79 305.12,-83.79 305.12,-89.79 305.12,-89.79 305.12,-111.33 305.12,-111.33 305.12,-117.33 299.12,-123.33 293.12,-123.33"/>
<text text-anchor="start" x="249.12" y="-112.26" font-family="Helvetica,sans-Serif" font-weight="bold" font-size="9.00">optimization</text>
<text text-anchor="start" x="252.5" y="-103.26" font-family="Helvetica,sans-Serif" font-weight="bold" font-size="9.00">consultant</text>
<text text-anchor="start" x="268.25" y="-94.16" font-family="Helvetica,sans-Serif" font-weight="bold" font-size="7.00">f=10</text>
<text text-anchor="start" x="250.62" y="-83.91" font-family="Helvetica,sans-Serif" font-weight="bold" font-size="7.00">mu=6,8 std=1,7</text>
</g>
<!-- query_and_sql_analyst -->
<g id="node7" class="node">
<title>query_and_sql_analyst</title>
<path fill="#cadfb8" stroke="#666666" stroke-width="0.8" d="M478.62,-310.41C478.62,-310.41 445.38,-310.41 445.38,-310.41 439.38,-310.41 433.38,-304.41 433.38,-298.41 433.38,-298.41 433.38,-258.87 433.38,-258.87 433.38,-252.87 439.38,-246.87 445.38,-246.87 445.38,-246.87 478.62,-246.87 478.62,-246.87 484.62,-246.87 490.62,-252.87 490.62,-258.87 490.62,-258.87 490.62,-298.41 490.62,-298.41 490.62,-304.41 484.62,-310.41 478.62,-310.41"/>
<text text-anchor="start" x="449.62" y="-299.34" font-family="Helvetica,sans-Serif" font-weight="bold" font-size="9.00">query</text>
<text text-anchor="start" x="454.12" y="-290.34" font-family="Helvetica,sans-Serif" font-weight="bold" font-size="9.00">and</text>
<text text-anchor="start" x="455.62" y="-281.34" font-family="Helvetica,sans-Serif" font-weight="bold" font-size="9.00">sql</text>
<text text-anchor="start" x="446.25" y="-272.34" font-family="Helvetica,sans-Serif" font-weight="bold" font-size="9.00">analyst</text>
<text text-anchor="start" x="457.12" y="-263.24" font-family="Helvetica,sans-Serif" font-weight="bold" font-size="7.00">f=7</text>
<text text-anchor="start" x="437.62" y="-252.99" font-family="Helvetica,sans-Serif" font-weight="bold" font-size="7.00">mu=7,3 std=1,3</text>
</g>
<!-- fairness_and_ethics_reviewer -->
<g id="node8" class="node">
<title>fairness_and_ethics_reviewer</title>
<path fill="#cee0b8" stroke="#666666" stroke-width="0.8" d="M322.62,-506.49C322.62,-506.49 289.38,-506.49 289.38,-506.49 283.38,-506.49 277.38,-500.49 277.38,-494.49 277.38,-494.49 277.38,-454.95 277.38,-454.95 277.38,-448.95 283.38,-442.95 289.38,-442.95 289.38,-442.95 322.62,-442.95 322.62,-442.95 328.62,-442.95 334.62,-448.95 334.62,-454.95 334.62,-454.95 334.62,-494.49 334.62,-494.49 334.62,-500.49 328.62,-506.49 322.62,-506.49"/>
<text text-anchor="start" x="288.38" y="-495.42" font-family="Helvetica,sans-Serif" font-weight="bold" font-size="9.00">fairness</text>
<text text-anchor="start" x="298.12" y="-486.42" font-family="Helvetica,sans-Serif" font-weight="bold" font-size="9.00">and</text>
<text text-anchor="start" x="292.88" y="-477.42" font-family="Helvetica,sans-Serif" font-weight="bold" font-size="9.00">ethics</text>
<text text-anchor="start" x="287.25" y="-468.42" font-family="Helvetica,sans-Serif" font-weight="bold" font-size="9.00">reviewer</text>
<text text-anchor="start" x="301.12" y="-459.32" font-family="Helvetica,sans-Serif" font-weight="bold" font-size="7.00">f=7</text>
<text text-anchor="start" x="281.62" y="-449.07" font-family="Helvetica,sans-Serif" font-weight="bold" font-size="7.00">mu=7,1 std=1,3</text>
</g>
<!-- hypothesis_generator -->
<g id="node9" class="node">
<title>hypothesis_generator</title>
<path fill="#bedbb4" stroke="#666666" stroke-width="0.8" d="M462.62,-207.87C462.62,-207.87 429.38,-207.87 429.38,-207.87 423.38,-207.87 417.38,-201.87 417.38,-195.87 417.38,-195.87 417.38,-174.33 417.38,-174.33 417.38,-168.33 423.38,-162.33 429.38,-162.33 429.38,-162.33 462.62,-162.33 462.62,-162.33 468.62,-162.33 474.62,-168.33 474.62,-174.33 474.62,-174.33 474.62,-195.87 474.62,-195.87 474.62,-201.87 468.62,-207.87 462.62,-207.87"/>
<text text-anchor="start" x="422.38" y="-196.8" font-family="Helvetica,sans-Serif" font-weight="bold" font-size="9.00">hypothesis</text>
<text text-anchor="start" x="425" y="-187.8" font-family="Helvetica,sans-Serif" font-weight="bold" font-size="9.00">generator</text>
<text text-anchor="start" x="441.12" y="-178.7" font-family="Helvetica,sans-Serif" font-weight="bold" font-size="7.00">f=6</text>
<text text-anchor="start" x="421.62" y="-168.45" font-family="Helvetica,sans-Serif" font-weight="bold" font-size="7.00">mu=7,8 std=0,8</text>
</g>
</g>
</svg>
